<mxfile host="app.diagrams.net" modified="2022-02-02T11:35:31.673Z" agent="5.0 (Windows NT 10.0; Win64; x64) AppleWebKit/537.36 (KHTML, like Gecko) Chrome/97.0.4692.99 Safari/537.36" etag="fSr07FSu9j4_RjON8GBF" version="16.5.2" type="github">
  <diagram id="PKFeZQ05TEJ_QjJrpuEQ" name="Page-1">
    <mxGraphModel dx="868" dy="425" grid="1" gridSize="10" guides="1" tooltips="1" connect="1" arrows="1" fold="1" page="1" pageScale="1" pageWidth="850" pageHeight="1100" math="0" shadow="0">
      <root>
        <mxCell id="0" />
        <mxCell id="1" parent="0" />
        <mxCell id="2JCEacamyZED3C2GoGxS-1" value="Trading Floor &lt;br&gt;(Web Application)" style="ellipse;whiteSpace=wrap;html=1;aspect=fixed;" parent="1" vertex="1">
          <mxGeometry x="340" y="280" width="170" height="170" as="geometry" />
        </mxCell>
        <mxCell id="2JCEacamyZED3C2GoGxS-2" value="Customer" style="whiteSpace=wrap;html=1;aspect=fixed;" parent="1" vertex="1">
          <mxGeometry x="20" y="280" width="140" height="140" as="geometry" />
        </mxCell>
        <mxCell id="2JCEacamyZED3C2GoGxS-3" value="IEX Cloud API" style="whiteSpace=wrap;html=1;aspect=fixed;" parent="1" vertex="1">
          <mxGeometry x="650" y="440" width="150" height="150" as="geometry" />
        </mxCell>
        <mxCell id="2JCEacamyZED3C2GoGxS-4" value="" style="endArrow=classic;html=1;rounded=0;exitX=1;exitY=0.25;exitDx=0;exitDy=0;entryX=0.029;entryY=0.318;entryDx=0;entryDy=0;entryPerimeter=0;startArrow=none;" parent="1" source="2JCEacamyZED3C2GoGxS-7" target="2JCEacamyZED3C2GoGxS-1" edge="1">
          <mxGeometry width="50" height="50" relative="1" as="geometry">
            <mxPoint x="400" y="390" as="sourcePoint" />
            <mxPoint x="450" y="340" as="targetPoint" />
          </mxGeometry>
        </mxCell>
        <mxCell id="2JCEacamyZED3C2GoGxS-7" value="Register/Login" style="text;html=1;align=center;verticalAlign=middle;resizable=0;points=[];autosize=1;strokeColor=none;fillColor=none;strokeWidth=1;fontSize=13;" parent="1" vertex="1">
          <mxGeometry x="210" y="310" width="100" height="20" as="geometry" />
        </mxCell>
        <mxCell id="2JCEacamyZED3C2GoGxS-8" value="" style="endArrow=none;html=1;rounded=0;exitX=1;exitY=0.25;exitDx=0;exitDy=0;" parent="1" source="2JCEacamyZED3C2GoGxS-2" edge="1">
          <mxGeometry width="50" height="50" relative="1" as="geometry">
            <mxPoint x="200" y="315" as="sourcePoint" />
            <mxPoint x="210" y="315" as="targetPoint" />
          </mxGeometry>
        </mxCell>
        <mxCell id="2JCEacamyZED3C2GoGxS-11" value="" style="endArrow=classic;html=1;rounded=0;fontSize=13;exitX=1;exitY=0.75;exitDx=0;exitDy=0;" parent="1" source="2JCEacamyZED3C2GoGxS-2" edge="1">
          <mxGeometry width="50" height="50" relative="1" as="geometry">
            <mxPoint x="400" y="390" as="sourcePoint" />
            <mxPoint x="340" y="385" as="targetPoint" />
          </mxGeometry>
        </mxCell>
        <mxCell id="2JCEacamyZED3C2GoGxS-12" value="Buy/Sell Stocks" style="edgeLabel;html=1;align=center;verticalAlign=middle;resizable=0;points=[];fontSize=13;" parent="2JCEacamyZED3C2GoGxS-11" vertex="1" connectable="0">
          <mxGeometry x="-0.1928" y="1" relative="1" as="geometry">
            <mxPoint x="17" y="6" as="offset" />
          </mxGeometry>
        </mxCell>
        <mxCell id="2JCEacamyZED3C2GoGxS-14" value="" style="endArrow=classic;html=1;rounded=0;fontSize=13;entryX=1;entryY=0;entryDx=0;entryDy=0;exitX=0.5;exitY=0;exitDx=0;exitDy=0;" parent="1" source="2JCEacamyZED3C2GoGxS-1" target="2JCEacamyZED3C2GoGxS-2" edge="1">
          <mxGeometry width="50" height="50" relative="1" as="geometry">
            <mxPoint x="400" y="390" as="sourcePoint" />
            <mxPoint x="450" y="340" as="targetPoint" />
          </mxGeometry>
        </mxCell>
        <mxCell id="2JCEacamyZED3C2GoGxS-15" value="Response" style="edgeLabel;html=1;align=center;verticalAlign=middle;resizable=0;points=[];fontSize=13;" parent="2JCEacamyZED3C2GoGxS-14" vertex="1" connectable="0">
          <mxGeometry x="-0.1376" relative="1" as="geometry">
            <mxPoint as="offset" />
          </mxGeometry>
        </mxCell>
        <mxCell id="2JCEacamyZED3C2GoGxS-18" value="" style="endArrow=classic;html=1;rounded=0;fontSize=13;exitX=-0.012;exitY=0.441;exitDx=0;exitDy=0;exitPerimeter=0;" parent="1" source="2JCEacamyZED3C2GoGxS-1" edge="1">
          <mxGeometry width="50" height="50" relative="1" as="geometry">
            <mxPoint x="170" y="520" as="sourcePoint" />
            <mxPoint x="160" y="355" as="targetPoint" />
          </mxGeometry>
        </mxCell>
        <mxCell id="2JCEacamyZED3C2GoGxS-19" value="Display Stocks" style="edgeLabel;html=1;align=center;verticalAlign=middle;resizable=0;points=[];fontSize=13;" parent="2JCEacamyZED3C2GoGxS-18" vertex="1" connectable="0">
          <mxGeometry x="0.1738" y="1" relative="1" as="geometry">
            <mxPoint x="16" y="-3" as="offset" />
          </mxGeometry>
        </mxCell>
        <mxCell id="2JCEacamyZED3C2GoGxS-20" value="" style="endArrow=classic;html=1;rounded=0;fontSize=13;exitX=0;exitY=0;exitDx=0;exitDy=0;entryX=1;entryY=0.5;entryDx=0;entryDy=0;" parent="1" source="2JCEacamyZED3C2GoGxS-3" target="2JCEacamyZED3C2GoGxS-1" edge="1">
          <mxGeometry width="50" height="50" relative="1" as="geometry">
            <mxPoint x="400" y="390" as="sourcePoint" />
            <mxPoint x="450" y="340" as="targetPoint" />
          </mxGeometry>
        </mxCell>
        <mxCell id="2JCEacamyZED3C2GoGxS-21" value="Provides information &lt;br&gt;about Shares" style="edgeLabel;html=1;align=center;verticalAlign=middle;resizable=0;points=[];fontSize=13;" parent="2JCEacamyZED3C2GoGxS-20" vertex="1" connectable="0">
          <mxGeometry x="-0.2986" y="2" relative="1" as="geometry">
            <mxPoint x="-22" y="-4" as="offset" />
          </mxGeometry>
        </mxCell>
        <mxCell id="2JCEacamyZED3C2GoGxS-22" value="" style="endArrow=classic;html=1;rounded=0;fontSize=13;exitX=-0.027;exitY=0.433;exitDx=0;exitDy=0;exitPerimeter=0;entryX=0.5;entryY=1;entryDx=0;entryDy=0;" parent="1" source="2JCEacamyZED3C2GoGxS-3" target="2JCEacamyZED3C2GoGxS-1" edge="1">
          <mxGeometry width="50" height="50" relative="1" as="geometry">
            <mxPoint x="400" y="390" as="sourcePoint" />
            <mxPoint x="520" y="340" as="targetPoint" />
          </mxGeometry>
        </mxCell>
        <mxCell id="2JCEacamyZED3C2GoGxS-28" value="Update Share Prices &lt;br&gt;according to Stock Exchange" style="edgeLabel;html=1;align=center;verticalAlign=middle;resizable=0;points=[];fontSize=13;" parent="2JCEacamyZED3C2GoGxS-22" vertex="1" connectable="0">
          <mxGeometry x="-0.1652" relative="1" as="geometry">
            <mxPoint x="-14" y="1" as="offset" />
          </mxGeometry>
        </mxCell>
        <mxCell id="3Hea03SsFf6Dg00RTlbb-1" value="&lt;h1&gt;Level - 0 Data Flow Diagram&lt;/h1&gt;" style="text;html=1;align=center;verticalAlign=middle;resizable=0;points=[];autosize=1;strokeColor=none;fillColor=none;" parent="1" vertex="1">
          <mxGeometry x="250" y="190" width="330" height="50" as="geometry" />
        </mxCell>
        <mxCell id="pANnPpvOpTytIvTSvFrg-1" value="" style="endArrow=classic;html=1;rounded=0;exitX=1;exitY=0;exitDx=0;exitDy=0;entryX=0.5;entryY=0;entryDx=0;entryDy=0;" edge="1" parent="1" source="2JCEacamyZED3C2GoGxS-1" target="2JCEacamyZED3C2GoGxS-3">
          <mxGeometry width="50" height="50" relative="1" as="geometry">
            <mxPoint x="580" y="340" as="sourcePoint" />
            <mxPoint x="630" y="290" as="targetPoint" />
          </mxGeometry>
        </mxCell>
        <mxCell id="pANnPpvOpTytIvTSvFrg-2" value="&lt;font style=&quot;font-size: 13px&quot;&gt;API Key and Company Symbol&lt;/font&gt;" style="edgeLabel;html=1;align=center;verticalAlign=middle;resizable=0;points=[];" vertex="1" connectable="0" parent="pANnPpvOpTytIvTSvFrg-1">
          <mxGeometry x="-0.2184" y="-4" relative="1" as="geometry">
            <mxPoint x="53" y="-1" as="offset" />
          </mxGeometry>
        </mxCell>
      </root>
    </mxGraphModel>
  </diagram>
</mxfile>
